STARTFONT 2.1
COMMENT AUTOMATICALLY GENERATED FILE. DO NOT EDIT!
COMMENT Generated with 'ucs2any lutRS08.bdf /usr/local/lib/X11/fonts/util/map-ISO8859-4 ISO8859-4'
COMMENT from an ISO10646-1 encoded source BDF font.
COMMENT ucs2any by Ben Collver <collver1@attbi.com>, 2003, based on
COMMENT ucs2any.pl by Markus Kuhn <http://www.cl.cam.ac.uk/~mgk25/>, 2000.
COMMENT $Xorg: $
COMMENT ISO10646-1 extension by Markus Kuhn <mkuhn@acm.org>, 2001-03-20
FONT -B&H-LucidaTypewriter-Medium-R-Normal-Sans-8-80-75-75-M-50-ISO8859-4
SIZE 8 72 72
FONTBOUNDINGBOX 5 12 0 -4
STARTPROPERTIES 22
FONTNAME_REGISTRY ""
FOUNDRY "B&H"
FAMILY_NAME "LucidaTypewriter"
WEIGHT_NAME "Medium"
SLANT "R"
SETWIDTH_NAME "Normal"
ADD_STYLE_NAME "Sans"
PIXEL_SIZE 8
POINT_SIZE 80
RESOLUTION_X 75
RESOLUTION_Y 75
SPACING "M"
AVERAGE_WIDTH 50
CHARSET_REGISTRY "ISO8859"
CHARSET_ENCODING "4"
FONT_ASCENT 8
FONT_DESCENT 2
DEFAULT_CHAR 0
COPYRIGHT "Copyright Bigelow & Holmes 1986, 1985."
FACE_NAME "Lucida Sans Typewriter"
X_HEIGHT 4
CAP_HEIGHT 6
ENDPROPERTIES
CHARS 192
STARTCHAR defaultchar
ENCODING 0
SWIDTH 602 0
DWIDTH 5 0
BBX 3 5 0 0
BITMAP
A0
00
A0
00
A0
ENDCHAR
STARTCHAR space
ENCODING 32
SWIDTH 602 0
DWIDTH 5 0
BBX 1 1 0 0
BITMAP
00
ENDCHAR
STARTCHAR exclam
ENCODING 33
SWIDTH 602 0
DWIDTH 5 0
BBX 1 6 2 0
BITMAP
80
80
80
80
00
80
ENDCHAR
STARTCHAR quotedbl
ENCODING 34
SWIDTH 602 0
DWIDTH 5 0
BBX 3 2 1 4
BITMAP
A0
A0
ENDCHAR
STARTCHAR numbersign
ENCODING 35
SWIDTH 602 0
DWIDTH 5 0
BBX 4 6 0 0
BITMAP
50
F0
60
F0
A0
A0
ENDCHAR
STARTCHAR dollar
ENCODING 36
SWIDTH 602 0
DWIDTH 5 0
BBX 3 7 1 -1
BITMAP
E0
C0
C0
60
60
E0
40
ENDCHAR
STARTCHAR percent
ENCODING 37
SWIDTH 602 0
DWIDTH 5 0
BBX 4 6 0 0
BITMAP
D0
E0
E0
70
70
B0
ENDCHAR
STARTCHAR ampersand
ENCODING 38
SWIDTH 602 0
DWIDTH 5 0
BBX 4 7 0 -1
BITMAP
60
60
60
B0
B0
60
10
ENDCHAR
STARTCHAR quotesingle
ENCODING 39
SWIDTH 602 0
DWIDTH 5 0
BBX 1 2 2 4
BITMAP
80
80
ENDCHAR
STARTCHAR parenleft
ENCODING 40
SWIDTH 602 0
DWIDTH 5 0
BBX 3 8 1 -2
BITMAP
60
40
80
80
80
80
40
20
ENDCHAR
STARTCHAR parenright
ENCODING 41
SWIDTH 602 0
DWIDTH 5 0
BBX 3 8 1 -2
BITMAP
80
40
20
20
20
20
40
80
ENDCHAR
STARTCHAR asterisk
ENCODING 42
SWIDTH 602 0
DWIDTH 5 0
BBX 4 3 0 3
BITMAP
40
F0
F0
ENDCHAR
STARTCHAR plus
ENCODING 43
SWIDTH 602 0
DWIDTH 5 0
BBX 5 4 0 0
BITMAP
20
F8
20
20
ENDCHAR
STARTCHAR comma
ENCODING 44
SWIDTH 602 0
DWIDTH 5 0
BBX 1 3 2 -2
BITMAP
80
80
80
ENDCHAR
STARTCHAR hyphen
ENCODING 45
SWIDTH 602 0
DWIDTH 5 0
BBX 4 1 0 2
BITMAP
F0
ENDCHAR
STARTCHAR period
ENCODING 46
SWIDTH 602 0
DWIDTH 5 0
BBX 1 1 2 0
BITMAP
80
ENDCHAR
STARTCHAR slash
ENCODING 47
SWIDTH 602 0
DWIDTH 5 0
BBX 4 8 0 -2
BITMAP
10
30
20
20
40
40
C0
80
ENDCHAR
STARTCHAR zero
ENCODING 48
SWIDTH 602 0
DWIDTH 5 0
BBX 4 6 0 0
BITMAP
60
90
90
90
90
60
ENDCHAR
STARTCHAR one
ENCODING 49
SWIDTH 602 0
DWIDTH 5 0
BBX 5 6 0 0
BITMAP
E0
20
20
20
20
F8
ENDCHAR
STARTCHAR two
ENCODING 50
SWIDTH 602 0
DWIDTH 5 0
BBX 3 6 1 0
BITMAP
E0
20
20
40
80
E0
ENDCHAR
STARTCHAR three
ENCODING 51
SWIDTH 602 0
DWIDTH 5 0
BBX 3 6 1 0
BITMAP
E0
20
C0
20
20
C0
ENDCHAR
STARTCHAR four
ENCODING 52
SWIDTH 602 0
DWIDTH 5 0
BBX 4 6 0 0
BITMAP
20
60
60
A0
F0
20
ENDCHAR
STARTCHAR five
ENCODING 53
SWIDTH 602 0
DWIDTH 5 0
BBX 3 6 1 0
BITMAP
E0
80
C0
20
20
C0
ENDCHAR
STARTCHAR six
ENCODING 54
SWIDTH 602 0
DWIDTH 5 0
BBX 4 6 1 0
BITMAP
70
80
E0
90
90
60
ENDCHAR
STARTCHAR seven
ENCODING 55
SWIDTH 602 0
DWIDTH 5 0
BBX 3 6 1 0
BITMAP
E0
20
40
40
80
80
ENDCHAR
STARTCHAR eight
ENCODING 56
SWIDTH 602 0
DWIDTH 5 0
BBX 4 6 0 0
BITMAP
70
90
60
F0
90
60
ENDCHAR
STARTCHAR nine
ENCODING 57
SWIDTH 602 0
DWIDTH 5 0
BBX 4 6 0 0
BITMAP
60
90
90
70
10
E0
ENDCHAR
STARTCHAR colon
ENCODING 58
SWIDTH 602 0
DWIDTH 5 0
BBX 1 4 2 0
BITMAP
80
00
00
80
ENDCHAR
STARTCHAR semicolon
ENCODING 59
SWIDTH 602 0
DWIDTH 5 0
BBX 1 6 2 -2
BITMAP
80
00
00
80
80
80
ENDCHAR
STARTCHAR less
ENCODING 60
SWIDTH 602 0
DWIDTH 5 0
BBX 4 4 0 0
BITMAP
30
E0
E0
30
ENDCHAR
STARTCHAR equal
ENCODING 61
SWIDTH 602 0
DWIDTH 5 0
BBX 4 2 0 1
BITMAP
F0
F0
ENDCHAR
STARTCHAR greater
ENCODING 62
SWIDTH 602 0
DWIDTH 5 0
BBX 4 4 0 0
BITMAP
C0
70
70
C0
ENDCHAR
STARTCHAR question
ENCODING 63
SWIDTH 602 0
DWIDTH 5 0
BBX 4 6 0 0
BITMAP
F0
90
30
40
00
40
ENDCHAR
STARTCHAR at
ENCODING 64
SWIDTH 602 0
DWIDTH 5 0
BBX 3 6 1 0
BITMAP
60
E0
E0
E0
E0
40
ENDCHAR
STARTCHAR A
ENCODING 65
SWIDTH 602 0
DWIDTH 5 0
BBX 5 6 0 0
BITMAP
20
70
50
70
88
88
ENDCHAR
STARTCHAR B
ENCODING 66
SWIDTH 602 0
DWIDTH 5 0
BBX 4 6 1 0
BITMAP
F0
90
E0
90
90
F0
ENDCHAR
STARTCHAR C
ENCODING 67
SWIDTH 602 0
DWIDTH 5 0
BBX 4 6 0 0
BITMAP
70
C0
80
80
C0
70
ENDCHAR
STARTCHAR D
ENCODING 68
SWIDTH 602 0
DWIDTH 5 0
BBX 4 6 1 0
BITMAP
E0
90
90
90
90
E0
ENDCHAR
STARTCHAR E
ENCODING 69
SWIDTH 602 0
DWIDTH 5 0
BBX 4 6 1 0
BITMAP
F0
80
E0
80
80
F0
ENDCHAR
STARTCHAR F
ENCODING 70
SWIDTH 602 0
DWIDTH 5 0
BBX 4 6 1 0
BITMAP
F0
80
80
F0
80
80
ENDCHAR
STARTCHAR G
ENCODING 71
SWIDTH 602 0
DWIDTH 5 0
BBX 4 6 0 0
BITMAP
70
C0
80
90
D0
70
ENDCHAR
STARTCHAR H
ENCODING 72
SWIDTH 602 0
DWIDTH 5 0
BBX 4 6 0 0
BITMAP
90
90
F0
90
90
90
ENDCHAR
STARTCHAR I
ENCODING 73
SWIDTH 602 0
DWIDTH 5 0
BBX 3 6 1 0
BITMAP
E0
40
40
40
40
E0
ENDCHAR
STARTCHAR J
ENCODING 74
SWIDTH 602 0
DWIDTH 5 0
BBX 3 6 1 0
BITMAP
E0
20
20
20
20
E0
ENDCHAR
STARTCHAR K
ENCODING 75
SWIDTH 602 0
DWIDTH 5 0
BBX 4 6 1 0
BITMAP
B0
A0
C0
C0
A0
90
ENDCHAR
STARTCHAR L
ENCODING 76
SWIDTH 602 0
DWIDTH 5 0
BBX 4 6 1 0
BITMAP
80
80
80
80
80
F0
ENDCHAR
STARTCHAR M
ENCODING 77
SWIDTH 602 0
DWIDTH 5 0
BBX 4 6 0 0
BITMAP
90
F0
F0
F0
F0
F0
ENDCHAR
STARTCHAR N
ENCODING 78
SWIDTH 602 0
DWIDTH 5 0
BBX 4 6 0 0
BITMAP
90
D0
D0
B0
B0
90
ENDCHAR
STARTCHAR O
ENCODING 79
SWIDTH 602 0
DWIDTH 5 0
BBX 4 6 0 0
BITMAP
60
90
90
90
90
60
ENDCHAR
STARTCHAR P
ENCODING 80
SWIDTH 602 0
DWIDTH 5 0
BBX 4 6 1 0
BITMAP
F0
90
90
E0
80
80
ENDCHAR
STARTCHAR Q
ENCODING 81
SWIDTH 602 0
DWIDTH 5 0
BBX 4 8 1 -2
BITMAP
60
90
90
90
90
70
20
10
ENDCHAR
STARTCHAR R
ENCODING 82
SWIDTH 602 0
DWIDTH 5 0
BBX 4 6 1 0
BITMAP
E0
A0
A0
C0
A0
90
ENDCHAR
STARTCHAR S
ENCODING 83
SWIDTH 602 0
DWIDTH 5 0
BBX 4 6 0 0
BITMAP
E0
80
C0
30
10
E0
ENDCHAR
STARTCHAR T
ENCODING 84
SWIDTH 602 0
DWIDTH 5 0
BBX 5 6 0 0
BITMAP
F8
20
20
20
20
20
ENDCHAR
STARTCHAR U
ENCODING 85
SWIDTH 602 0
DWIDTH 5 0
BBX 4 6 0 0
BITMAP
90
90
90
90
90
F0
ENDCHAR
STARTCHAR V
ENCODING 86
SWIDTH 602 0
DWIDTH 5 0
BBX 5 6 0 0
BITMAP
88
88
50
50
50
20
ENDCHAR
STARTCHAR W
ENCODING 87
SWIDTH 602 0
DWIDTH 5 0
BBX 5 6 0 0
BITMAP
A8
A8
A8
A8
E8
50
ENDCHAR
STARTCHAR X
ENCODING 88
SWIDTH 602 0
DWIDTH 5 0
BBX 5 6 0 0
BITMAP
C8
50
20
30
50
88
ENDCHAR
STARTCHAR Y
ENCODING 89
SWIDTH 602 0
DWIDTH 5 0
BBX 5 6 0 0
BITMAP
88
50
50
20
20
20
ENDCHAR
STARTCHAR Z
ENCODING 90
SWIDTH 602 0
DWIDTH 5 0
BBX 4 6 0 0
BITMAP
F0
30
20
40
C0
F0
ENDCHAR
STARTCHAR bracketleft
ENCODING 91
SWIDTH 602 0
DWIDTH 5 0
BBX 3 8 1 -2
BITMAP
E0
80
80
80
80
80
80
E0
ENDCHAR
STARTCHAR backslash
ENCODING 92
SWIDTH 602 0
DWIDTH 5 0
BBX 4 8 0 -2
BITMAP
80
C0
40
40
20
20
30
10
ENDCHAR
STARTCHAR bracketright
ENCODING 93
SWIDTH 602 0
DWIDTH 5 0
BBX 3 8 0 -2
BITMAP
E0
20
20
20
20
20
20
E0
ENDCHAR
STARTCHAR asciicircum
ENCODING 94
SWIDTH 602 0
DWIDTH 5 0
BBX 4 6 0 1
BITMAP
20
20
60
60
90
90
ENDCHAR
STARTCHAR underscore
ENCODING 95
SWIDTH 602 0
DWIDTH 5 0
BBX 5 1 0 -1
BITMAP
F8
ENDCHAR
STARTCHAR grave
ENCODING 96
SWIDTH 602 0
DWIDTH 5 0
BBX 2 1 1 5
BITMAP
C0
ENDCHAR
STARTCHAR a
ENCODING 97
SWIDTH 602 0
DWIDTH 5 0
BBX 4 4 1 0
BITMAP
E0
E0
A0
D0
ENDCHAR
STARTCHAR b
ENCODING 98
SWIDTH 602 0
DWIDTH 5 0
BBX 4 6 1 0
BITMAP
80
80
E0
90
90
E0
ENDCHAR
STARTCHAR c
ENCODING 99
SWIDTH 602 0
DWIDTH 5 0
BBX 4 4 0 0
BITMAP
70
80
80
70
ENDCHAR
STARTCHAR d
ENCODING 100
SWIDTH 602 0
DWIDTH 5 0
BBX 4 6 0 0
BITMAP
10
10
70
90
90
F0
ENDCHAR
STARTCHAR e
ENCODING 101
SWIDTH 602 0
DWIDTH 5 0
BBX 4 4 0 0
BITMAP
70
F0
80
70
ENDCHAR
STARTCHAR f
ENCODING 102
SWIDTH 602 0
DWIDTH 5 0
BBX 4 6 1 0
BITMAP
70
40
F0
40
40
40
ENDCHAR
STARTCHAR g
ENCODING 103
SWIDTH 602 0
DWIDTH 5 0
BBX 4 6 0 -2
BITMAP
70
90
90
F0
10
F0
ENDCHAR
STARTCHAR h
ENCODING 104
SWIDTH 602 0
DWIDTH 5 0
BBX 3 6 1 0
BITMAP
80
80
E0
A0
A0
A0
ENDCHAR
STARTCHAR i
ENCODING 105
SWIDTH 602 0
DWIDTH 5 0
BBX 3 6 0 0
BITMAP
20
00
E0
20
20
20
ENDCHAR
STARTCHAR j
ENCODING 106
SWIDTH 602 0
DWIDTH 5 0
BBX 3 8 1 -2
BITMAP
20
00
E0
20
20
20
20
E0
ENDCHAR
STARTCHAR k
ENCODING 107
SWIDTH 602 0
DWIDTH 5 0
BBX 4 6 1 0
BITMAP
80
80
B0
E0
E0
B0
ENDCHAR
STARTCHAR l
ENCODING 108
SWIDTH 602 0
DWIDTH 5 0
BBX 3 6 0 0
BITMAP
E0
20
20
20
20
20
ENDCHAR
STARTCHAR m
ENCODING 109
SWIDTH 602 0
DWIDTH 5 0
BBX 5 4 0 0
BITMAP
F8
A8
A8
A8
ENDCHAR
STARTCHAR n
ENCODING 110
SWIDTH 602 0
DWIDTH 5 0
BBX 3 4 1 0
BITMAP
E0
A0
A0
A0
ENDCHAR
STARTCHAR o
ENCODING 111
SWIDTH 602 0
DWIDTH 5 0
BBX 4 4 0 0
BITMAP
60
90
90
60
ENDCHAR
STARTCHAR p
ENCODING 112
SWIDTH 602 0
DWIDTH 5 0
BBX 4 6 1 -2
BITMAP
E0
90
90
E0
80
80
ENDCHAR
STARTCHAR q
ENCODING 113
SWIDTH 602 0
DWIDTH 5 0
BBX 4 6 0 -2
BITMAP
70
90
90
F0
10
10
ENDCHAR
STARTCHAR r
ENCODING 114
SWIDTH 602 0
DWIDTH 5 0
BBX 3 4 1 0
BITMAP
E0
A0
80
80
ENDCHAR
STARTCHAR s
ENCODING 115
SWIDTH 602 0
DWIDTH 5 0
BBX 3 4 1 0
BITMAP
E0
C0
20
E0
ENDCHAR
STARTCHAR t
ENCODING 116
SWIDTH 602 0
DWIDTH 5 0
BBX 4 6 0 0
BITMAP
40
40
F0
40
40
70
ENDCHAR
STARTCHAR u
ENCODING 117
SWIDTH 602 0
DWIDTH 5 0
BBX 3 4 1 0
BITMAP
A0
A0
A0
E0
ENDCHAR
STARTCHAR v
ENCODING 118
SWIDTH 602 0
DWIDTH 5 0
BBX 4 4 0 0
BITMAP
90
90
60
60
ENDCHAR
STARTCHAR w
ENCODING 119
SWIDTH 602 0
DWIDTH 5 0
BBX 5 4 0 0
BITMAP
A8
A8
58
50
ENDCHAR
STARTCHAR x
ENCODING 120
SWIDTH 602 0
DWIDTH 5 0
BBX 4 4 0 0
BITMAP
B0
60
60
90
ENDCHAR
STARTCHAR y
ENCODING 121
SWIDTH 602 0
DWIDTH 5 0
BBX 4 6 0 -2
BITMAP
90
F0
60
60
40
C0
ENDCHAR
STARTCHAR z
ENCODING 122
SWIDTH 602 0
DWIDTH 5 0
BBX 4 4 0 0
BITMAP
F0
20
40
F0
ENDCHAR
STARTCHAR braceleft
ENCODING 123
SWIDTH 602 0
DWIDTH 5 0
BBX 3 8 1 -2
BITMAP
60
40
40
40
C0
40
40
60
ENDCHAR
STARTCHAR bar
ENCODING 124
SWIDTH 602 0
DWIDTH 5 0
BBX 1 8 2 -2
BITMAP
80
80
80
80
80
80
80
80
ENDCHAR
STARTCHAR braceright
ENCODING 125
SWIDTH 602 0
DWIDTH 5 0
BBX 3 8 1 -2
BITMAP
C0
40
40
40
60
40
40
C0
ENDCHAR
STARTCHAR asciitilde
ENCODING 126
SWIDTH 602 0
DWIDTH 5 0
BBX 4 2 0 1
BITMAP
D0
B0
ENDCHAR
STARTCHAR space
ENCODING 160
SWIDTH 602 0
DWIDTH 5 0
BBX 1 1 0 0
BITMAP
00
ENDCHAR
STARTCHAR Aogonek
ENCODING 161
SWIDTH 602 0
DWIDTH 5 0
BBX 5 8 0 -2
BITMAP
20
70
50
70
88
88
20
20
ENDCHAR
STARTCHAR kgreenlandic
ENCODING 162
SWIDTH 602 0
DWIDTH 5 0
BBX 4 4 1 0
BITMAP
B0
E0
E0
B0
ENDCHAR
STARTCHAR Rcommaaccent
ENCODING 163
SWIDTH 602 0
DWIDTH 5 0
BBX 4 10 1 -4
BITMAP
E0
A0
A0
C0
A0
90
00
40
40
40
ENDCHAR
STARTCHAR currency
ENCODING 164
SWIDTH 602 0
DWIDTH 5 0
BBX 3 4 1 1
BITMAP
A0
E0
A0
E0
ENDCHAR
STARTCHAR Itilde
ENCODING 165
SWIDTH 602 0
DWIDTH 5 0
BBX 3 8 1 0
BITMAP
E0
00
E0
40
40
40
40
E0
ENDCHAR
STARTCHAR Lcommaaccent
ENCODING 166
SWIDTH 602 0
DWIDTH 5 0
BBX 4 10 1 -4
BITMAP
80
80
80
80
80
F0
00
40
40
40
ENDCHAR
STARTCHAR section
ENCODING 167
SWIDTH 602 0
DWIDTH 5 0
BBX 3 8 1 -2
BITMAP
E0
80
40
A0
E0
40
20
E0
ENDCHAR
STARTCHAR dieresis
ENCODING 168
SWIDTH 602 0
DWIDTH 5 0
BBX 2 1 1 5
BITMAP
C0
ENDCHAR
STARTCHAR Scaron
ENCODING 169
SWIDTH 602 0
DWIDTH 5 0
BBX 4 7 0 0
BITMAP
E0
E0
80
C0
30
10
E0
ENDCHAR
STARTCHAR Emacron
ENCODING 170
SWIDTH 602 0
DWIDTH 5 0
BBX 4 8 1 0
BITMAP
60
00
F0
80
E0
80
80
F0
ENDCHAR
STARTCHAR Gcommaaccent
ENCODING 171
SWIDTH 602 0
DWIDTH 5 0
BBX 4 10 0 -4
BITMAP
70
C0
80
90
D0
70
00
20
20
20
ENDCHAR
STARTCHAR Tbar
ENCODING 172
SWIDTH 602 0
DWIDTH 5 0
BBX 5 6 0 0
BITMAP
F8
20
70
20
20
20
ENDCHAR
STARTCHAR hyphen
ENCODING 173
SWIDTH 602 0
DWIDTH 5 0
BBX 3 1 1 2
BITMAP
E0
ENDCHAR
STARTCHAR Zcaron
ENCODING 174
SWIDTH 602 0
DWIDTH 5 0
BBX 4 7 0 0
BITMAP
A0
F0
30
20
40
C0
F0
ENDCHAR
STARTCHAR macron
ENCODING 175
SWIDTH 602 0
DWIDTH 5 0
BBX 2 1 1 5
BITMAP
C0
ENDCHAR
STARTCHAR degree
ENCODING 176
SWIDTH 602 0
DWIDTH 5 0
BBX 1 2 2 4
BITMAP
80
80
ENDCHAR
STARTCHAR aogonek
ENCODING 177
SWIDTH 602 0
DWIDTH 5 0
BBX 4 6 1 -2
BITMAP
E0
E0
A0
D0
40
40
ENDCHAR
STARTCHAR ogonek
ENCODING 178
SWIDTH 602 0
DWIDTH 5 0
BBX 1 2 2 -2
BITMAP
80
80
ENDCHAR
STARTCHAR rcommaaccent
ENCODING 179
SWIDTH 602 0
DWIDTH 5 0
BBX 3 8 1 -4
BITMAP
E0
A0
80
80
00
80
80
80
ENDCHAR
STARTCHAR acute
ENCODING 180
SWIDTH 602 0
DWIDTH 5 0
BBX 2 1 1 5
BITMAP
C0
ENDCHAR
STARTCHAR itilde
ENCODING 181
SWIDTH 602 0
DWIDTH 5 0
BBX 3 6 0 0
BITMAP
E0
00
E0
20
20
20
ENDCHAR
STARTCHAR lcommaaccent
ENCODING 182
SWIDTH 602 0
DWIDTH 5 0
BBX 3 10 0 -4
BITMAP
E0
20
20
20
20
20
00
20
20
20
ENDCHAR
STARTCHAR caron
ENCODING 183
SWIDTH 602 0
DWIDTH 5 0
BBX 3 1 1 5
BITMAP
E0
ENDCHAR
STARTCHAR cedilla
ENCODING 184
SWIDTH 602 0
DWIDTH 5 0
BBX 1 2 2 -2
BITMAP
80
80
ENDCHAR
STARTCHAR scaron
ENCODING 185
SWIDTH 602 0
DWIDTH 5 0
BBX 3 5 1 0
BITMAP
E0
E0
C0
20
E0
ENDCHAR
STARTCHAR emacron
ENCODING 186
SWIDTH 602 0
DWIDTH 5 0
BBX 4 6 0 0
BITMAP
60
00
70
F0
80
70
ENDCHAR
STARTCHAR gcommaaccent
ENCODING 187
SWIDTH 602 0
DWIDTH 5 0
BBX 4 9 0 -2
BITMAP
20
20
00
70
90
90
F0
10
F0
ENDCHAR
STARTCHAR tbar
ENCODING 188
SWIDTH 602 0
DWIDTH 5 0
BBX 4 6 0 0
BITMAP
40
40
F0
70
40
70
ENDCHAR
STARTCHAR Eng
ENCODING 189
SWIDTH 602 0
DWIDTH 5 0
BBX 4 8 0 -2
BITMAP
90
D0
D0
B0
B0
90
10
70
ENDCHAR
STARTCHAR zcaron
ENCODING 190
SWIDTH 602 0
DWIDTH 5 0
BBX 4 5 0 0
BITMAP
50
F0
20
40
F0
ENDCHAR
STARTCHAR eng
ENCODING 191
SWIDTH 602 0
DWIDTH 5 0
BBX 3 6 1 -2
BITMAP
E0
A0
A0
A0
20
E0
ENDCHAR
STARTCHAR Amacron
ENCODING 192
SWIDTH 602 0
DWIDTH 5 0
BBX 5 8 0 0
BITMAP
30
00
20
70
50
70
88
88
ENDCHAR
STARTCHAR Aacute
ENCODING 193
SWIDTH 602 0
DWIDTH 5 0
BBX 5 7 0 0
BITMAP
60
20
70
50
70
88
88
ENDCHAR
STARTCHAR Acircumflex
ENCODING 194
SWIDTH 602 0
DWIDTH 5 0
BBX 5 7 0 0
BITMAP
70
20
70
50
70
88
88
ENDCHAR
STARTCHAR Atilde
ENCODING 195
SWIDTH 602 0
DWIDTH 5 0
BBX 5 7 0 0
BITMAP
70
20
70
50
70
88
88
ENDCHAR
STARTCHAR Adieresis
ENCODING 196
SWIDTH 602 0
DWIDTH 5 0
BBX 5 7 0 0
BITMAP
30
20
70
50
70
88
88
ENDCHAR
STARTCHAR Aring
ENCODING 197
SWIDTH 602 0
DWIDTH 5 0
BBX 5 8 0 0
BITMAP
20
50
20
70
50
70
88
88
ENDCHAR
STARTCHAR AE
ENCODING 198
SWIDTH 602 0
DWIDTH 5 0
BBX 4 6 0 0
BITMAP
30
60
60
70
E0
B0
ENDCHAR
STARTCHAR Iogonek
ENCODING 199
SWIDTH 602 0
DWIDTH 5 0
BBX 3 8 1 -2
BITMAP
E0
40
40
40
40
E0
40
40
ENDCHAR
STARTCHAR Ccaron
ENCODING 200
SWIDTH 602 0
DWIDTH 5 0
BBX 4 8 0 0
BITMAP
E0
00
70
C0
80
80
C0
70
ENDCHAR
STARTCHAR Eacute
ENCODING 201
SWIDTH 602 0
DWIDTH 5 0
BBX 4 7 1 0
BITMAP
40
F0
80
E0
80
80
F0
ENDCHAR
STARTCHAR Eogonek
ENCODING 202
SWIDTH 602 0
DWIDTH 5 0
BBX 4 8 1 -2
BITMAP
F0
80
E0
80
80
F0
40
40
ENDCHAR
STARTCHAR Edieresis
ENCODING 203
SWIDTH 602 0
DWIDTH 5 0
BBX 4 7 1 0
BITMAP
60
F0
80
E0
80
80
F0
ENDCHAR
STARTCHAR Edotaccent
ENCODING 204
SWIDTH 602 0
DWIDTH 5 0
BBX 4 8 1 0
BITMAP
40
00
F0
80
E0
80
80
F0
ENDCHAR
STARTCHAR Iacute
ENCODING 205
SWIDTH 602 0
DWIDTH 5 0
BBX 3 7 1 0
BITMAP
80
E0
40
40
40
40
E0
ENDCHAR
STARTCHAR Icircumflex
ENCODING 206
SWIDTH 602 0
DWIDTH 5 0
BBX 3 7 1 0
BITMAP
E0
E0
40
40
40
40
E0
ENDCHAR
STARTCHAR Imacron
ENCODING 207
SWIDTH 602 0
DWIDTH 5 0
BBX 3 8 1 0
BITMAP
60
00
E0
40
40
40
40
E0
ENDCHAR
STARTCHAR Dcroat
ENCODING 208
SWIDTH 602 0
DWIDTH 5 0
BBX 4 6 0 0
BITMAP
E0
90
D0
90
90
E0
ENDCHAR
STARTCHAR Ncommaaccent
ENCODING 209
SWIDTH 602 0
DWIDTH 5 0
BBX 4 10 0 -4
BITMAP
90
D0
D0
B0
B0
90
00
20
20
20
ENDCHAR
STARTCHAR Omacron
ENCODING 210
SWIDTH 602 0
DWIDTH 5 0
BBX 4 8 0 0
BITMAP
60
00
60
90
90
90
90
60
ENDCHAR
STARTCHAR Kcommaaccent
ENCODING 211
SWIDTH 602 0
DWIDTH 5 0
BBX 4 10 1 -4
BITMAP
B0
A0
C0
C0
A0
90
00
40
40
40
ENDCHAR
STARTCHAR Ocircumflex
ENCODING 212
SWIDTH 602 0
DWIDTH 5 0
BBX 4 7 0 0
BITMAP
70
60
90
90
90
90
60
ENDCHAR
STARTCHAR Otilde
ENCODING 213
SWIDTH 602 0
DWIDTH 5 0
BBX 4 7 0 0
BITMAP
70
60
90
90
90
90
60
ENDCHAR
STARTCHAR Odieresis
ENCODING 214
SWIDTH 602 0
DWIDTH 5 0
BBX 4 7 0 0
BITMAP
60
60
90
90
90
90
60
ENDCHAR
STARTCHAR multiply
ENCODING 215
SWIDTH 602 0
DWIDTH 5 0
BBX 4 4 0 0
BITMAP
90
60
60
90
ENDCHAR
STARTCHAR Oslash
ENCODING 216
SWIDTH 602 0
DWIDTH 5 0
BBX 4 6 0 0
BITMAP
70
B0
B0
D0
D0
E0
ENDCHAR
STARTCHAR Uogonek
ENCODING 217
SWIDTH 602 0
DWIDTH 5 0
BBX 4 8 0 -2
BITMAP
90
90
90
90
90
F0
20
20
ENDCHAR
STARTCHAR Uacute
ENCODING 218
SWIDTH 602 0
DWIDTH 5 0
BBX 4 7 0 0
BITMAP
60
90
90
90
90
90
F0
ENDCHAR
STARTCHAR Ucircumflex
ENCODING 219
SWIDTH 602 0
DWIDTH 5 0
BBX 4 7 0 0
BITMAP
E0
90
90
90
90
90
F0
ENDCHAR
STARTCHAR Udieresis
ENCODING 220
SWIDTH 602 0
DWIDTH 5 0
BBX 4 7 0 0
BITMAP
60
90
90
90
90
90
F0
ENDCHAR
STARTCHAR Utilde
ENCODING 221
SWIDTH 602 0
DWIDTH 5 0
BBX 4 8 0 0
BITMAP
70
00
90
90
90
90
90
F0
ENDCHAR
STARTCHAR Umacron
ENCODING 222
SWIDTH 602 0
DWIDTH 5 0
BBX 4 8 0 0
BITMAP
60
00
90
90
90
90
90
F0
ENDCHAR
STARTCHAR germandbls
ENCODING 223
SWIDTH 602 0
DWIDTH 5 0
BBX 4 6 1 0
BITMAP
E0
A0
A0
B0
90
B0
ENDCHAR
STARTCHAR amacron
ENCODING 224
SWIDTH 602 0
DWIDTH 5 0
BBX 4 6 1 0
BITMAP
60
00
E0
E0
A0
D0
ENDCHAR
STARTCHAR aacute
ENCODING 225
SWIDTH 602 0
DWIDTH 5 0
BBX 4 5 1 0
BITMAP
40
E0
E0
A0
D0
ENDCHAR
STARTCHAR acircumflex
ENCODING 226
SWIDTH 602 0
DWIDTH 5 0
BBX 4 5 1 0
BITMAP
E0
E0
E0
A0
D0
ENDCHAR
STARTCHAR atilde
ENCODING 227
SWIDTH 602 0
DWIDTH 5 0
BBX 4 5 1 0
BITMAP
E0
E0
E0
A0
D0
ENDCHAR
STARTCHAR adieresis
ENCODING 228
SWIDTH 602 0
DWIDTH 5 0
BBX 4 5 1 0
BITMAP
60
E0
E0
A0
D0
ENDCHAR
STARTCHAR aring
ENCODING 229
SWIDTH 602 0
DWIDTH 5 0
BBX 4 6 1 0
BITMAP
40
A0
E0
E0
A0
D0
ENDCHAR
STARTCHAR ae
ENCODING 230
SWIDTH 602 0
DWIDTH 5 0
BBX 5 4 0 0
BITMAP
D8
F8
A0
D8
ENDCHAR
STARTCHAR iogonek
ENCODING 231
SWIDTH 602 0
DWIDTH 5 0
BBX 3 8 0 -2
BITMAP
20
00
E0
20
20
20
20
20
ENDCHAR
STARTCHAR ccaron
ENCODING 232
SWIDTH 602 0
DWIDTH 5 0
BBX 4 6 0 0
BITMAP
70
00
70
80
80
70
ENDCHAR
STARTCHAR eacute
ENCODING 233
SWIDTH 602 0
DWIDTH 5 0
BBX 4 5 0 0
BITMAP
40
70
F0
80
70
ENDCHAR
STARTCHAR eogonek
ENCODING 234
SWIDTH 602 0
DWIDTH 5 0
BBX 4 6 0 -2
BITMAP
70
F0
80
70
20
20
ENDCHAR
STARTCHAR edieresis
ENCODING 235
SWIDTH 602 0
DWIDTH 5 0
BBX 4 5 0 0
BITMAP
60
70
F0
80
70
ENDCHAR
STARTCHAR edotaccent
ENCODING 236
SWIDTH 602 0
DWIDTH 5 0
BBX 4 6 0 0
BITMAP
20
00
70
F0
80
70
ENDCHAR
STARTCHAR iacute
ENCODING 237
SWIDTH 602 0
DWIDTH 5 0
BBX 3 5 0 0
BITMAP
40
E0
20
20
20
ENDCHAR
STARTCHAR icircumflex
ENCODING 238
SWIDTH 602 0
DWIDTH 5 0
BBX 4 5 0 0
BITMAP
70
E0
20
20
20
ENDCHAR
STARTCHAR imacron
ENCODING 239
SWIDTH 602 0
DWIDTH 5 0
BBX 3 6 0 0
BITMAP
60
00
E0
20
20
20
ENDCHAR
STARTCHAR dcroat
ENCODING 240
SWIDTH 602 0
DWIDTH 5 0
BBX 4 6 0 0
BITMAP
10
70
70
90
90
F0
ENDCHAR
STARTCHAR ncommaaccent
ENCODING 241
SWIDTH 602 0
DWIDTH 5 0
BBX 3 8 1 -4
BITMAP
E0
A0
A0
A0
00
40
40
40
ENDCHAR
STARTCHAR omacron
ENCODING 242
SWIDTH 602 0
DWIDTH 5 0
BBX 4 6 0 0
BITMAP
60
00
60
90
90
60
ENDCHAR
STARTCHAR kcommaaccent
ENCODING 243
SWIDTH 602 0
DWIDTH 5 0
BBX 4 10 1 -4
BITMAP
80
80
B0
E0
E0
B0
00
40
40
40
ENDCHAR
STARTCHAR ocircumflex
ENCODING 244
SWIDTH 602 0
DWIDTH 5 0
BBX 4 5 0 0
BITMAP
70
60
90
90
60
ENDCHAR
STARTCHAR otilde
ENCODING 245
SWIDTH 602 0
DWIDTH 5 0
BBX 4 5 0 0
BITMAP
70
60
90
90
60
ENDCHAR
STARTCHAR odieresis
ENCODING 246
SWIDTH 602 0
DWIDTH 5 0
BBX 4 5 0 0
BITMAP
60
60
90
90
60
ENDCHAR
STARTCHAR divide
ENCODING 247
SWIDTH 602 0
DWIDTH 5 0
BBX 5 4 0 0
BITMAP
20
F8
00
20
ENDCHAR
STARTCHAR oslash
ENCODING 248
SWIDTH 602 0
DWIDTH 5 0
BBX 4 4 0 0
BITMAP
70
B0
D0
E0
ENDCHAR
STARTCHAR uogonek
ENCODING 249
SWIDTH 602 0
DWIDTH 5 0
BBX 3 6 1 -2
BITMAP
A0
A0
A0
E0
40
40
ENDCHAR
STARTCHAR uacute
ENCODING 250
SWIDTH 602 0
DWIDTH 5 0
BBX 3 5 1 0
BITMAP
C0
A0
A0
A0
E0
ENDCHAR
STARTCHAR ucircumflex
ENCODING 251
SWIDTH 602 0
DWIDTH 5 0
BBX 3 5 1 0
BITMAP
E0
A0
A0
A0
E0
ENDCHAR
STARTCHAR udieresis
ENCODING 252
SWIDTH 602 0
DWIDTH 5 0
BBX 3 5 1 0
BITMAP
60
A0
A0
A0
E0
ENDCHAR
STARTCHAR utilde
ENCODING 253
SWIDTH 602 0
DWIDTH 5 0
BBX 3 6 1 0
BITMAP
E0
00
A0
A0
A0
E0
ENDCHAR
STARTCHAR umacron
ENCODING 254
SWIDTH 602 0
DWIDTH 5 0
BBX 3 6 1 0
BITMAP
60
00
A0
A0
A0
E0
ENDCHAR
STARTCHAR dotaccent
ENCODING 255
SWIDTH 602 0
DWIDTH 5 0
BBX 1 1 2 5
BITMAP
80
ENDCHAR
ENDFONT
